# xmcd CD database file
#
# Track frame offsets:
#	183
#	24110
#	44788
#	69780
#	92005
#	114205
#	137920
#	150898
#	154518
#	175283
#
# Disc length: 2541 seconds
#
# Revision: 0
# Processed by: cddbd v1.5.2PL0 Copyright (c) Steve Scherf et al.
# Submitted via: CDex 1.70beta2
#
DISCID=6d09eb0a
DTITLE=Stiletto - Stiletto
DYEAR=1988
DGENRE=Jazz
TTITLE0=Bankett
TTITLE1=Stiletto
TTITLE2=Wonder
TTITLE3=Pygmy-Rock
TTITLE4=Nocturne
TTITLE5=Basilines
TTITLE6=Baby Blue
TTITLE7=The Landing
TTITLE8=Something From Jupiter
TTITLE9=Mr. Love
EXTD=YEAR: 1988
EXTT0=
EXTT1=
EXTT2=
EXTT3=
EXTT4=
EXTT5=
EXTT6=
EXTT7=
EXTT8=
EXTT9=
PLAYORDER=
